<?xml version="1.0" encoding="utf-8"?>
<!-- Generator: Adobe Illustrator 15.0.2, SVG Export Plug-In . SVG Version: 6.00 Build 0)  -->
<!DOCTYPE svg PUBLIC "-//W3C//DTD SVG 1.1//EN" "http://www.w3.org/Graphics/SVG/1.1/DTD/svg11.dtd">
<svg version="1.1" xmlns="http://www.w3.org/2000/svg" xmlns:xlink="http://www.w3.org/1999/xlink" x="0px" y="0px"
	 width="67.166px" height="80px" viewBox="478.834 344 67.166 80" enable-background="new 478.834 344 67.166 80"
	 xml:space="preserve">
<g id="Layer_2">
</g>
<g id="Layer_1">
	<g id="XMLID_2_">
		<path d="M546,344c0,26.67,0,53.33,0,80c-22.33,0-44.67,0-67,0c0.67-26.33-1.33-55.33,1-80C502,344,524,344,546,344z M493,413
			c20.76,4.48,44.48-1.02,43-19c-0.57-6.94-5.81-10.66-12-14c6.21-1.95,10.07-7.65,10-13c-0.2-15.2-23.25-17.34-41-14c0,3,0,6,0,9
			c12-1.4,29.28-3.6,29,7c-0.27,9.96-15.73,7.92-29,8c0,3,0,6,0,9c15.95-0.61,33-1.37,30,12c-2.27,10.12-20.12,6.01-30,7
			C493,407.67,493,410.33,493,413z"/>
	</g>
	<rect x="478.834" y="344" width="7.166" height="80"/>
</g>
</svg>
